# Blender v2.79 (sub 7) OBJ File: 'weather.blend'
# www.blender.org
mtllib weather.mtl
o Plane.001
v -4.985103 4.999999 -4.985103
v -4.985102 -5.000000 -4.985103
v 4.985102 5.000000 4.985103
v 4.985103 -4.999999 4.985103
v -4.985100 -5.000000 4.985105
v 4.985100 -4.999999 -4.985105
v -4.985100 4.999999 4.985105
v 4.985100 5.000000 -4.985105
v 4.985102 -4.999999 -4.985103
v -4.985101 -5.000000 4.985104
v 4.985101 5.000000 -4.985104
v -4.985102 4.999999 4.985103
v -4.985103 -5.000000 -4.985102
v -4.985102 4.999999 -4.985102
v 4.985102 -4.999999 4.985102
v 4.985103 5.000000 4.985102
vt 0.000000 0.500000
vt 0.500000 0.500000
vt 0.500000 1.000000
vt 0.000000 1.000000
vt 1.000000 0.500000
vt 1.000000 1.000000
vt 0.500000 1.000000
vt 0.500000 0.500000
vt 0.000000 0.500000
vt 0.000000 0.000000
vt 0.500000 0.000000
vt 0.500000 0.500000
vt 1.000000 0.500000
vt 0.500000 0.500000
vt 0.500000 0.000000
vt 1.000000 0.000000
vn -0.7071 -0.0000 0.7071
vn 0.7071 -0.0000 0.7071
vn -0.7071 -0.0000 -0.7071
vn 0.7071 -0.0000 -0.7071
usemtl None
s off
f 1/1/1 2/2/1 4/3/1 3/4/1
f 5/5/2 6/6/2 8/7/2 7/8/2
f 9/9/3 10/10/3 12/11/3 11/12/3
f 13/13/4 14/14/4 16/15/4 15/16/4
